<?xml version="1.0" encoding="UTF-8" standalone="no"?>
<!DOCTYPE svg PUBLIC "-//W3C//DTD SVG 1.1//EN"
 "http://www.w3.org/Graphics/SVG/1.1/DTD/svg11.dtd">
<!-- Generated by graphviz version 2.40.1 (20161225.0304)
 -->
<!-- Title: NSGraph Pages: 1 -->
<svg width="278pt" height="332pt"
 viewBox="0.00 0.00 278.00 332.00" xmlns="http://www.w3.org/2000/svg" xmlns:xlink="http://www.w3.org/1999/xlink">
<g id="graph0" class="graph" transform="scale(1 1) rotate(0) translate(4 328)">
<title>NSGraph</title>
<polygon fill="#ffffff" stroke="transparent" points="-4,4 -4,-328 274,-328 274,4 -4,4"/>
<!-- 1 -->
<g id="node1" class="node">
<title>1</title>
<ellipse fill="none" stroke="#000000" cx="171" cy="-18" rx="27" ry="18"/>
<text text-anchor="middle" x="171" y="-14.3" font-family="Times,serif" font-size="14.00" fill="#000000">1</text>
</g>
<!-- 2 -->
<g id="node2" class="node">
<title>2</title>
<ellipse fill="none" stroke="#000000" cx="99" cy="-90" rx="27" ry="18"/>
<text text-anchor="middle" x="99" y="-86.3" font-family="Times,serif" font-size="14.00" fill="#000000">2</text>
</g>
<!-- 2&#45;&#45;1 -->
<g id="edge1" class="edge">
<title>2&#45;&#45;1</title>
<path fill="none" stroke="#000000" d="M114.2693,-74.7307C126.488,-62.512 143.5398,-45.4602 155.7527,-33.2473"/>
</g>
<!-- 3 -->
<g id="node3" class="node">
<title>3</title>
<ellipse fill="none" stroke="#000000" cx="171" cy="-90" rx="27" ry="18"/>
<text text-anchor="middle" x="171" y="-86.3" font-family="Times,serif" font-size="14.00" fill="#000000">3</text>
</g>
<!-- 3&#45;&#45;1 -->
<g id="edge2" class="edge">
<title>3&#45;&#45;1</title>
<path fill="none" stroke="#000000" d="M171,-71.8314C171,-61 171,-47.2876 171,-36.4133"/>
</g>
<!-- 4 -->
<g id="node4" class="node">
<title>4</title>
<ellipse fill="none" stroke="#000000" cx="27" cy="-162" rx="27" ry="18"/>
<text text-anchor="middle" x="27" y="-158.3" font-family="Times,serif" font-size="14.00" fill="#000000">4</text>
</g>
<!-- 4&#45;&#45;2 -->
<g id="edge3" class="edge">
<title>4&#45;&#45;2</title>
<path fill="none" stroke="#000000" d="M42.2693,-146.7307C54.488,-134.512 71.5398,-117.4602 83.7527,-105.2473"/>
</g>
<!-- 5 -->
<g id="node5" class="node">
<title>5</title>
<ellipse fill="none" stroke="#000000" cx="243" cy="-90" rx="27" ry="18"/>
<text text-anchor="middle" x="243" y="-86.3" font-family="Times,serif" font-size="14.00" fill="#000000">5</text>
</g>
<!-- 5&#45;&#45;1 -->
<g id="edge4" class="edge">
<title>5&#45;&#45;1</title>
<path fill="none" stroke="#000000" d="M227.7307,-74.7307C215.512,-62.512 198.4602,-45.4602 186.2473,-33.2473"/>
</g>
<!-- 6 -->
<g id="node6" class="node">
<title>6</title>
<ellipse fill="none" stroke="#000000" cx="99" cy="-162" rx="27" ry="18"/>
<text text-anchor="middle" x="99" y="-158.3" font-family="Times,serif" font-size="14.00" fill="#000000">6</text>
</g>
<!-- 6&#45;&#45;2 -->
<g id="edge5" class="edge">
<title>6&#45;&#45;2</title>
<path fill="none" stroke="#000000" d="M99,-143.8314C99,-133 99,-119.2876 99,-108.4133"/>
</g>
<!-- 6&#45;&#45;3 -->
<g id="edge6" class="edge">
<title>6&#45;&#45;3</title>
<path fill="none" stroke="#000000" d="M114.2693,-146.7307C126.488,-134.512 143.5398,-117.4602 155.7527,-105.2473"/>
</g>
<!-- 7 -->
<g id="node7" class="node">
<title>7</title>
<ellipse fill="none" stroke="#000000" cx="171" cy="-162" rx="27" ry="18"/>
<text text-anchor="middle" x="171" y="-158.3" font-family="Times,serif" font-size="14.00" fill="#000000">10</text>
</g>
<!-- 7&#45;&#45;2 -->
<g id="edge7" class="edge">
<title>7&#45;&#45;2</title>
<path fill="none" stroke="#000000" d="M155.7307,-146.7307C143.512,-134.512 126.4602,-117.4602 114.2473,-105.2473"/>
</g>
<!-- 7&#45;&#45;5 -->
<g id="edge8" class="edge">
<title>7&#45;&#45;5</title>
<path fill="none" stroke="#000000" d="M186.2693,-146.7307C198.488,-134.512 215.5398,-117.4602 227.7527,-105.2473"/>
</g>
<!-- 8 -->
<g id="node8" class="node">
<title>8</title>
<ellipse fill="none" stroke="#000000" cx="27" cy="-234" rx="27" ry="18"/>
<text text-anchor="middle" x="27" y="-230.3" font-family="Times,serif" font-size="14.00" fill="#000000">12</text>
</g>
<!-- 8&#45;&#45;4 -->
<g id="edge9" class="edge">
<title>8&#45;&#45;4</title>
<path fill="none" stroke="#000000" d="M27,-215.8314C27,-205 27,-191.2876 27,-180.4133"/>
</g>
<!-- 8&#45;&#45;6 -->
<g id="edge10" class="edge">
<title>8&#45;&#45;6</title>
<path fill="none" stroke="#000000" d="M42.2693,-218.7307C54.488,-206.512 71.5398,-189.4602 83.7527,-177.2473"/>
</g>
<!-- 9 -->
<g id="node9" class="node">
<title>9</title>
<ellipse fill="none" stroke="#000000" cx="243" cy="-162" rx="27" ry="18"/>
<text text-anchor="middle" x="243" y="-158.3" font-family="Times,serif" font-size="14.00" fill="#000000">15</text>
</g>
<!-- 9&#45;&#45;3 -->
<g id="edge11" class="edge">
<title>9&#45;&#45;3</title>
<path fill="none" stroke="#000000" d="M227.7307,-146.7307C215.512,-134.512 198.4602,-117.4602 186.2473,-105.2473"/>
</g>
<!-- 9&#45;&#45;5 -->
<g id="edge12" class="edge">
<title>9&#45;&#45;5</title>
<path fill="none" stroke="#000000" d="M243,-143.8314C243,-133 243,-119.2876 243,-108.4133"/>
</g>
<!-- 10 -->
<g id="node10" class="node">
<title>10</title>
<ellipse fill="none" stroke="#000000" cx="99" cy="-234" rx="27" ry="18"/>
<text text-anchor="middle" x="99" y="-230.3" font-family="Times,serif" font-size="14.00" fill="#000000">20</text>
</g>
<!-- 10&#45;&#45;4 -->
<g id="edge13" class="edge">
<title>10&#45;&#45;4</title>
<path fill="none" stroke="#000000" d="M83.7307,-218.7307C71.512,-206.512 54.4602,-189.4602 42.2473,-177.2473"/>
</g>
<!-- 10&#45;&#45;7 -->
<g id="edge14" class="edge">
<title>10&#45;&#45;7</title>
<path fill="none" stroke="#000000" d="M114.2693,-218.7307C126.488,-206.512 143.5398,-189.4602 155.7527,-177.2473"/>
</g>
<!-- 11 -->
<g id="node11" class="node">
<title>11</title>
<ellipse fill="none" stroke="#000000" cx="171" cy="-234" rx="27" ry="18"/>
<text text-anchor="middle" x="171" y="-230.3" font-family="Times,serif" font-size="14.00" fill="#000000">30</text>
</g>
<!-- 11&#45;&#45;6 -->
<g id="edge15" class="edge">
<title>11&#45;&#45;6</title>
<path fill="none" stroke="#000000" d="M155.7307,-218.7307C143.512,-206.512 126.4602,-189.4602 114.2473,-177.2473"/>
</g>
<!-- 11&#45;&#45;7 -->
<g id="edge16" class="edge">
<title>11&#45;&#45;7</title>
<path fill="none" stroke="#000000" d="M171,-215.8314C171,-205 171,-191.2876 171,-180.4133"/>
</g>
<!-- 11&#45;&#45;9 -->
<g id="edge17" class="edge">
<title>11&#45;&#45;9</title>
<path fill="none" stroke="#000000" d="M186.2693,-218.7307C198.488,-206.512 215.5398,-189.4602 227.7527,-177.2473"/>
</g>
<!-- 12 -->
<g id="node12" class="node">
<title>12</title>
<ellipse fill="none" stroke="#000000" cx="99" cy="-306" rx="27" ry="18"/>
<text text-anchor="middle" x="99" y="-302.3" font-family="Times,serif" font-size="14.00" fill="#000000">60</text>
</g>
<!-- 12&#45;&#45;8 -->
<g id="edge18" class="edge">
<title>12&#45;&#45;8</title>
<path fill="none" stroke="#000000" d="M83.7307,-290.7307C71.512,-278.512 54.4602,-261.4602 42.2473,-249.2473"/>
</g>
<!-- 12&#45;&#45;10 -->
<g id="edge19" class="edge">
<title>12&#45;&#45;10</title>
<path fill="none" stroke="#000000" d="M99,-287.8314C99,-277 99,-263.2876 99,-252.4133"/>
</g>
<!-- 12&#45;&#45;11 -->
<g id="edge20" class="edge">
<title>12&#45;&#45;11</title>
<path fill="none" stroke="#000000" d="M114.2693,-290.7307C126.488,-278.512 143.5398,-261.4602 155.7527,-249.2473"/>
</g>
</g>
</svg>
