<?xml version="1.0" encoding="UTF-8" standalone="no"?>
<!DOCTYPE svg PUBLIC "-//W3C//DTD SVG 1.1//EN"
 "http://www.w3.org/Graphics/SVG/1.1/DTD/svg11.dtd">
<!-- Generated by graphviz version 2.40.1 (20161225.0304)
 -->
<!-- Title: NSGraph Pages: 1 -->
<svg width="650pt" height="188pt"
 viewBox="0.00 0.00 650.29 188.00" xmlns="http://www.w3.org/2000/svg" xmlns:xlink="http://www.w3.org/1999/xlink">
<g id="graph0" class="graph" transform="scale(1 1) rotate(0) translate(4 184)">
<title>NSGraph</title>
<polygon fill="#ffffff" stroke="transparent" points="-4,4 -4,-184 646.2918,-184 646.2918,4 -4,4"/>
<!-- 1 -->
<g id="node1" class="node">
<title>1</title>
<ellipse fill="none" stroke="#000000" cx="321.1459" cy="-18" rx="27" ry="18"/>
<text text-anchor="middle" x="321.1459" y="-14.3" font-family="Times,serif" font-size="14.00" fill="#000000">[ ]</text>
</g>
<!-- 2 -->
<g id="node2" class="node">
<title>2</title>
<ellipse fill="none" stroke="#000000" cx="46.1459" cy="-90" rx="46.2923" ry="18"/>
<text text-anchor="middle" x="46.1459" y="-86.3" font-family="Times,serif" font-size="14.00" fill="#000000">[ [ 1, 0 ] ]</text>
</g>
<!-- 2&#45;&#45;1 -->
<g id="edge2" class="edge">
<title>2&#45;&#45;1</title>
<path fill="none" stroke="#000000" d="M80.938,-78.174C87.6175,-76.0285 94.5772,-73.8781 101.1459,-72 170.7217,-52.1068 253.9346,-32.9136 295.2384,-23.691"/>
</g>
<!-- 3 -->
<g id="node3" class="node">
<title>3</title>
<ellipse fill="none" stroke="#000000" cx="156.1459" cy="-90" rx="46.2923" ry="18"/>
<text text-anchor="middle" x="156.1459" y="-86.3" font-family="Times,serif" font-size="14.00" fill="#000000">[ [ 1, 1 ] ]</text>
</g>
<!-- 3&#45;&#45;1 -->
<g id="edge3" class="edge">
<title>3&#45;&#45;1</title>
<path fill="none" stroke="#000000" d="M187.1811,-76.4574C219.4811,-62.3628 269.3047,-40.6216 298.2169,-28.0054"/>
</g>
<!-- 4 -->
<g id="node4" class="node">
<title>4</title>
<ellipse fill="none" stroke="#000000" cx="266.1459" cy="-90" rx="46.2923" ry="18"/>
<text text-anchor="middle" x="266.1459" y="-86.3" font-family="Times,serif" font-size="14.00" fill="#000000">[ [ 1, 2 ] ]</text>
</g>
<!-- 4&#45;&#45;1 -->
<g id="edge4" class="edge">
<title>4&#45;&#45;1</title>
<path fill="none" stroke="#000000" d="M279.4599,-72.5708C288.3616,-60.9177 299.9942,-45.6895 308.7085,-34.2817"/>
</g>
<!-- 5 -->
<g id="node5" class="node">
<title>5</title>
<ellipse fill="none" stroke="#000000" cx="376.1459" cy="-90" rx="46.2923" ry="18"/>
<text text-anchor="middle" x="376.1459" y="-86.3" font-family="Times,serif" font-size="14.00" fill="#000000">[ [ 1, 4 ] ]</text>
</g>
<!-- 5&#45;&#45;1 -->
<g id="edge5" class="edge">
<title>5&#45;&#45;1</title>
<path fill="none" stroke="#000000" d="M362.8319,-72.5708C353.9302,-60.9177 342.2976,-45.6895 333.5833,-34.2817"/>
</g>
<!-- 6 -->
<g id="node6" class="node">
<title>6</title>
<ellipse fill="none" stroke="#000000" cx="486.1459" cy="-90" rx="46.2923" ry="18"/>
<text text-anchor="middle" x="486.1459" y="-86.3" font-family="Times,serif" font-size="14.00" fill="#000000">[ [ 1, 3 ] ]</text>
</g>
<!-- 6&#45;&#45;1 -->
<g id="edge6" class="edge">
<title>6&#45;&#45;1</title>
<path fill="none" stroke="#000000" d="M455.1107,-76.4574C422.8107,-62.3628 372.9871,-40.6216 344.0749,-28.0054"/>
</g>
<!-- 7 -->
<g id="node7" class="node">
<title>7</title>
<ellipse fill="none" stroke="#000000" cx="596.1459" cy="-90" rx="46.2923" ry="18"/>
<text text-anchor="middle" x="596.1459" y="-86.3" font-family="Times,serif" font-size="14.00" fill="#000000">[ [ 0, 1 ] ]</text>
</g>
<!-- 7&#45;&#45;1 -->
<g id="edge1" class="edge">
<title>7&#45;&#45;1</title>
<path fill="none" stroke="#000000" d="M561.3538,-78.174C554.6743,-76.0285 547.7146,-73.8781 541.1459,-72 471.5701,-52.1068 388.3572,-32.9136 347.0535,-23.691"/>
</g>
<!-- 8 -->
<g id="node8" class="node">
<title>8</title>
<ellipse fill="none" stroke="#000000" cx="321.1459" cy="-162" rx="75.2868" ry="18"/>
<text text-anchor="middle" x="321.1459" y="-158.3" font-family="Times,serif" font-size="14.00" fill="#000000">[ [ 1, 0 ], [ 0, 1 ] ]</text>
</g>
<!-- 8&#45;&#45;2 -->
<g id="edge8" class="edge">
<title>8&#45;&#45;2</title>
<path fill="none" stroke="#000000" d="M265.6892,-149.6112C221.02,-139.3391 156.7309,-123.8929 101.1459,-108 94.5772,-106.1219 87.6175,-103.9715 80.938,-101.826"/>
</g>
<!-- 8&#45;&#45;3 -->
<g id="edge9" class="edge">
<title>8&#45;&#45;3</title>
<path fill="none" stroke="#000000" d="M284.936,-146.1993C255.6229,-133.4082 214.7823,-115.5868 187.005,-103.4658"/>
</g>
<!-- 8&#45;&#45;4 -->
<g id="edge10" class="edge">
<title>8&#45;&#45;4</title>
<path fill="none" stroke="#000000" d="M307.5504,-144.2022C298.9615,-132.9586 287.917,-118.5003 279.3952,-107.3446"/>
</g>
<!-- 8&#45;&#45;5 -->
<g id="edge11" class="edge">
<title>8&#45;&#45;5</title>
<path fill="none" stroke="#000000" d="M334.7414,-144.2022C343.3303,-132.9586 354.3748,-118.5003 362.8966,-107.3446"/>
</g>
<!-- 8&#45;&#45;6 -->
<g id="edge12" class="edge">
<title>8&#45;&#45;6</title>
<path fill="none" stroke="#000000" d="M357.3559,-146.1993C386.6689,-133.4082 427.5095,-115.5868 455.2869,-103.4658"/>
</g>
<!-- 8&#45;&#45;7 -->
<g id="edge7" class="edge">
<title>8&#45;&#45;7</title>
<path fill="none" stroke="#000000" d="M376.6026,-149.6112C421.2718,-139.3391 485.5609,-123.8929 541.1459,-108 547.7146,-106.1219 554.6743,-103.9715 561.3538,-101.826"/>
</g>
</g>
</svg>
